<?xml version="1.0" encoding="utf-8"?>
<!-- Generator: Adobe Illustrator 26.5.0, SVG Export Plug-In . SVG Version: 6.00 Build 0)  -->
<svg version="1.0" id="katman_1" xmlns="http://www.w3.org/2000/svg" xmlns:xlink="http://www.w3.org/1999/xlink" x="0px" y="0px"
	 viewBox="0 0 634 490" style="enable-background:new 0 0 634 490;" xml:space="preserve">
<style type="text/css">
	.st0{fill:#232324;}
	.st1{fill:#656566;}
	.st2{fill:url(#SVGID_1_);}
	.st3{opacity:0.7;fill:url(#SVGID_00000155134399230892767350000008757840176274526634_);enable-background:new    ;}
	.st4{opacity:0.5;fill:url(#SVGID_00000034077282896248361350000004304719386435633593_);enable-background:new    ;}
	.st5{fill:url(#SVGID_00000142153513607195357870000014878513905957213880_);}
	.st6{fill:url(#SVGID_00000067198789979076531790000013189895153662470837_);}
	.st7{fill:url(#SVGID_00000115505479794468228950000010337607493513272220_);}
	.st8{opacity:0.6;fill:url(#SVGID_00000181810201444828410580000002879626050270023319_);enable-background:new    ;}
	.st9{opacity:0.6;fill:url(#SVGID_00000042714852793027359830000010701707050430390162_);enable-background:new    ;}
</style>
<g>
	<path class="st0" d="M260.79,292.62l-19-56.02h13.11l11.52,37.67l12.46-37.82h10.47l12.53,37.82l11.56-37.67h12.75l-18.96,56.02
		h-10.66l-12.57-36.41l-12.53,36.41h-10.66H260.79z M349.71,293.16c-13.22,0-22.97-9.75-22.97-22v-0.14
		c0-12.28,9.86-22.18,23.12-22.18c13.18,0,22.97,9.75,22.97,22.03v0.14C372.83,283.23,362.97,293.16,349.71,293.16L349.71,293.16z
		 M349.86,282.76c6.9,0,11.05-5.31,11.05-11.59v-0.14c0-6.28-4.55-11.77-11.2-11.77c-6.93,0-11.05,5.31-11.05,11.59v0.18
		C338.66,277.27,343.17,282.76,349.86,282.76z M381.57,292.22V249.6h12.06v8.6c2.46-5.85,6.43-9.68,13.58-9.39v12.64h-0.58
		c-8.02,0-12.97,4.88-12.97,15.03v15.75h-12.06H381.57z M414.8,292.22v-58.01h12.06v30.92l14.12-15.53h14.45l-16.18,16.8
		l16.76,25.83h-13.83l-11.12-17.41l-4.19,4.44v12.97h-12.1H414.8z M480.03,293.16c-12.82,0-22.25-8.96-22.25-22v-0.14
		c0-12.17,8.67-22.18,21.06-22.18c14.19,0,20.73,11.05,20.73,23.12c0,0.94-0.07,2.06-0.18,3.18h-29.62
		c1.19,5.49,4.98,8.34,10.4,8.34c4.05,0,7.01-1.26,10.33-4.37l6.9,6.14c-4.21,5.24-10.65,8.19-17.37,7.95V293.16z M469.59,267.59
		h18.2c-0.72-5.42-3.9-9.03-8.96-9.03C473.82,258.56,470.53,262.1,469.59,267.59L469.59,267.59z M508.53,292.22V249.6h12.1v8.6
		c2.46-5.85,6.43-9.68,13.58-9.39v12.64h-0.65c-8.02,0-12.93,4.88-12.93,15.03v15.75h-12.14H508.53z M556.71,293.01
		c-5.96,0-12.64-1.99-18.28-6.43l5.17-7.95c3.85,3.01,8.52,4.77,13.4,5.06c3.5,0,5.09-1.26,5.09-3.14v-0.18
		c0-2.6-4.12-3.5-8.81-4.91c-5.96-1.77-12.71-4.55-12.71-12.79v-0.18c0-8.67,7.01-13.51,15.57-13.51c5.42,0,11.31,1.81,15.89,4.95
		l-4.59,8.31c-3.47-2.25-7.44-3.62-11.56-3.97c-2.89,0-4.44,1.3-4.44,2.96v0.14c0,2.38,4.08,3.5,8.67,5.09
		c5.96,1.99,12.89,4.84,12.89,12.64v0.14C573,288.72,565.92,293.01,556.71,293.01L556.71,293.01z"/>
	<path class="st1" d="M268.7,200.91h5.63v15.21h9.86v4.88h-15.53v-20.08H268.7z M289.97,211.02v-0.07c0-5.78,4.7-10.47,10.94-10.47
		c2.83-0.1,5.57,0.95,7.62,2.91c2.04,1.96,3.2,4.66,3.22,7.49v0.07c0,5.78-4.7,10.44-10.91,10.44c-2.83,0.11-5.59-0.94-7.64-2.9
		c-2.05-1.96-3.22-4.67-3.23-7.5V211.02z M306.08,211.02v-0.07c0-2.89-2.09-5.42-5.2-5.42c-3.07,0-5.13,2.46-5.13,5.38v0.04
		c0,2.89,2.09,5.42,5.17,5.42c3.11,0,5.17-2.46,5.17-5.38V211.02z M318.69,212.18v-11.27h5.71v11.2c0,2.89,1.48,4.23,3.72,4.23
		s3.72-1.3,3.72-4.12v-11.31h5.71v11.12c0,6.5-3.72,9.32-9.5,9.32c-5.78,0-9.39-2.89-9.39-9.17H318.69z M346.14,200.91h7.8
		c7.22,0,11.45,4.12,11.45,9.93v0.07c0,5.78-4.26,10.11-11.56,10.11h-7.69v-20.15V200.91z M354.08,216.08
		c3.32,0,5.56-1.84,5.56-5.13l0,0c0-3.25-2.24-5.09-5.6-5.09h-2.28v10.15h2.28v0.04L354.08,216.08z M373.59,200.91h16.22v4.88
		h-10.62v3.43h9.61v4.62h-9.61v7.15h-5.6V200.91L373.59,200.91z M397.61,200.91h5.6v15.21h9.82v4.88h-15.42V200.91L397.61,200.91z
		 M427.69,200.77h5.42l8.67,20.23h-6.07l-1.44-3.58h-7.84l-1.44,3.61h-5.89L427.69,200.77L427.69,200.77z M432.64,213.08l-2.24-5.71
		l-2.28,5.71H432.64z M448.97,200.91h9.61c3.11,0,5.24,0.79,6.61,2.17c1.19,1.16,1.81,2.71,1.81,4.7v0.07
		c0,3.11-1.66,5.13-4.15,6.14l4.84,7.08h-6.5l-4.12-6.07h-2.46v6.07h-5.63V200.91L448.97,200.91z M458.32,210.55
		c1.91,0,3-0.94,3-2.38v-0.07c0-1.55-1.16-2.35-3.03-2.35h-3.72v4.8H458.32z M475.08,200.91h16.25v4.7h-10.66v3.07h9.72v4.41h-9.75
		v3.18h10.91v4.73h-16.43v-20.08H475.08z M256.38,213.37c-0.8,1.84-2.62,3.02-4.62,3c-3.07,0-5.17-2.53-5.17-5.42l0,0
		c0-2.89,2.06-5.42,5.13-5.42c2.15-0.02,4.08,1.33,4.8,3.36h6c-1.07-5.01-5.57-8.53-10.69-8.34c-6.25,0-10.94,4.7-10.94,10.47v0.04
		c0.02,2.84,1.18,5.54,3.23,7.5s4.81,3.01,7.64,2.9c5.35,0,9.54-3.43,10.62-8.02l-5.92-0.04L256.38,213.37z"/>
	<g>
		
			<linearGradient id="SVGID_1_" gradientUnits="userSpaceOnUse" x1="-271.3258" y1="662.2484" x2="-271.5688" y2="663.1614" gradientTransform="matrix(56.3225 0 0 -131.5816 15379.6562 87444.7812)">
			<stop  offset="0" style="stop-color:#EB6F07"/>
			<stop  offset="1" style="stop-color:#FAB743"/>
		</linearGradient>
		<path class="st2" d="M99.62,178.95l17.7,31.93l-16.25,29.26c-1.58,2.84-1.58,6.3,0,9.14l16.25,29.33l-17.7,31.93
			c-3.33-1.65-6.1-4.25-7.95-7.48l-28.17-48.94c-3.34-5.82-3.34-12.97,0-18.78l28.17-48.94C93.53,183.18,96.3,180.59,99.62,178.95z"
			/>
		
			<linearGradient id="SVGID_00000119100629240875820190000008283605060195070355_" gradientUnits="userSpaceOnUse" x1="-270.8606" y1="660.0806" x2="-271.2656" y2="660.6226" gradientTransform="matrix(54.0719 0 0 -70.3598 14756.252 46739.0742)">
			<stop  offset="0" style="stop-color:#D96504"/>
			<stop  offset="1" style="stop-color:#D96504;stop-opacity:0"/>
		</linearGradient>
		<path style="opacity:0.7;fill:url(#SVGID_00000119100629240875820190000008283605060195070355_);enable-background:new    ;" d="
			M101.07,240.17c-1.57,2.83-1.57,6.27,0,9.1l16.25,29.33l-17.7,31.93c-3.33-1.65-6.1-4.25-7.95-7.48l-28.17-48.94
			c-2.24-3.86,10.29-8.49,37.56-13.91V240.17z"/>
		
			<linearGradient id="SVGID_00000146491707188850013660000007856117274777208491_" gradientUnits="userSpaceOnUse" x1="-268.0127" y1="656.0003" x2="-267.5927" y2="655.2883" gradientTransform="matrix(34.602 0 0 -36.5163 9363.0811 24141.7988)">
			<stop  offset="0" style="stop-color:#EB6F07"/>
			<stop  offset="1" style="stop-color:#EB720A;stop-opacity:0"/>
		</linearGradient>
		<path style="opacity:0.5;fill:url(#SVGID_00000146491707188850013660000007856117274777208491_);enable-background:new    ;" d="
			M101.43,182.17l15.89,28.71l-2.64,4.59l-14.01-23.73c-4.05-6.61-10.22-3.18-17.95,10.19l1.16-1.99l7.8-13.54
			c1.84-3.2,4.58-5.79,7.87-7.44l1.84,3.21H101.43z"/>
		
			<linearGradient id="SVGID_00000106109721801015860230000003525032984066538937_" gradientUnits="userSpaceOnUse" x1="-272.9237" y1="662.3005" x2="-273.1667" y2="663.2135" gradientTransform="matrix(75.1185 0 0 -135.4463 20680.0527 90016.3203)">
			<stop  offset="0" style="stop-color:#EE6F05"/>
			<stop  offset="1" style="stop-color:#FAB743"/>
		</linearGradient>
		<path style="fill:url(#SVGID_00000106109721801015860230000003525032984066538937_);" d="M180.53,186.39l28.17,48.94
			c3.36,5.78,3.36,13,0,18.78l-28.17,48.94c-3.35,5.81-9.55,9.39-16.25,9.39H136.1l35.04-63.17c1.57-2.83,1.57-6.27,0-9.1L136.1,177
			h28.17C170.98,177,177.18,180.58,180.53,186.39L180.53,186.39z"/>
		
			<linearGradient id="SVGID_00000168076904771754916590000017194439030422591633_" gradientUnits="userSpaceOnUse" x1="-270.4272" y1="662.2697" x2="-269.1782" y2="663.2697" gradientTransform="matrix(42.9492 0 0 -135.4824 11735.8848 90040.3672)">
			<stop  offset="0" style="stop-color:#D96504;stop-opacity:0.8"/>
			<stop  offset="0.498" style="stop-color:#D96504;stop-opacity:0.2"/>
			<stop  offset="1" style="stop-color:#D96504;stop-opacity:0"/>
		</linearGradient>
		<path style="fill:url(#SVGID_00000168076904771754916590000017194439030422591633_);" d="M162.83,312.23l-27.81,0.25l33.66-63.5
			c1.53-2.87,1.53-6.31,0-9.17L135.02,177h6.36l35.32,62.52c1.7,3.01,1.69,6.69-0.04,9.68c-7.6,13.21-15.15,26.46-22.65,39.73
			C147.16,301,150.12,308.76,162.83,312.23L162.83,312.23z"/>
		
			<linearGradient id="SVGID_00000012433954655622114100000002383938590870903205_" gradientUnits="userSpaceOnUse" x1="-272.7719" y1="662.3004" x2="-273.0149" y2="663.2133" gradientTransform="matrix(72.6921 0 0 -135.4463 19969.0215 90016.3203)">
			<stop  offset="0" style="stop-color:#FFA95F"/>
			<stop  offset="1" style="stop-color:#FFEBC8"/>
		</linearGradient>
		<path style="fill:url(#SVGID_00000012433954655622114100000002383938590870903205_);" d="M107.93,312.45
			c-2.89,0-5.78-0.69-8.31-1.91l34.75-62.67c1.08-1.95,1.08-4.33,0-6.28l-34.75-62.63c2.58-1.28,5.43-1.95,8.31-1.95h28.17
			l35.04,63.17c1.57,2.83,1.57,6.27,0,9.1l-35.04,63.17H107.93z"/>
		
			<linearGradient id="SVGID_00000085949381580508812700000012661786654033325197_" gradientUnits="userSpaceOnUse" x1="-269.5393" y1="662.8821" x2="-268.6553" y2="662.4052" gradientTransform="matrix(39.4626 0 0 -135.4463 10764.4521 90016.3203)">
			<stop  offset="0" style="stop-color:#FFFFFF;stop-opacity:0.5"/>
			<stop  offset="1" style="stop-color:#FFFFFF;stop-opacity:0.1"/>
		</linearGradient>
		<path style="opacity:0.6;fill:url(#SVGID_00000085949381580508812700000012661786654033325197_);enable-background:new    ;" d="
			M168.68,241.58L132.85,177h3.25l35.04,63.17c1.57,2.83,1.57,6.27,0,9.1l-35.04,63.17h-3.25l35.83-64.58
			C169.77,245.92,169.77,243.53,168.68,241.58z"/>
		
			<linearGradient id="SVGID_00000088100600956366635770000013047086350783753348_" gradientUnits="userSpaceOnUse" x1="-269.5673" y1="662.5709" x2="-268.4303" y2="663.1509" gradientTransform="matrix(38.7402 0 0 -134.146 10530.4023 89151.0391)">
			<stop  offset="0" style="stop-color:#FFFFFF;stop-opacity:0.5"/>
			<stop  offset="1" style="stop-color:#FFFFFF;stop-opacity:0.1"/>
		</linearGradient>
		<path style="opacity:0.6;fill:url(#SVGID_00000088100600956366635770000013047086350783753348_);enable-background:new    ;" d="
			M134.37,241.58l-34.75-62.63c1.08-0.58,2.38-1.01,3.61-1.37c7.66,13.76,18.96,34.64,33.95,62.59c1.57,2.83,1.57,6.27,0,9.1
			l-34.49,62.45c-1.23-0.36-1.88-0.61-3.03-1.16l34.67-62.67c1.08-1.95,1.08-4.33,0-6.28L134.37,241.58z"/>
	</g>
</g>
</svg>
